<svg xmlns="http://www.w3.org/2000/svg" viewBox="0 0 128 128">
  <rect width="128" height="128" rx="30" fill="#000"/>

  <path
    d="M31 91H93C101.84 91 109 83.84 109 75V70M109 50V42C109 33.16 101.84 26 93 26H35C26.16 26 19 33.16 19 42V69"
    fill="none"
    stroke="#FFF"
    stroke-width="8"
    stroke-linecap="round"
  />

  <path d="M19 75L19 99L39 87L19 75Z" fill="#FFF"/>

  <rect x="34" y="48" width="7" height="28" rx="3.5" fill="#FFF"/>
  <rect x="46" y="39" width="7" height="46" rx="3.5" fill="#FFF"/>
  <rect x="58" y="31" width="7" height="62" rx="3.5" fill="#FFF"/>
  <rect x="70" y="43" width="7" height="38" rx="3.5" fill="#FFF"/>

  <rect x="84" y="49" width="28" height="8" rx="4" fill="#FFF"/>
  <rect x="84" y="65" width="22" height="8" rx="4" fill="#FFF"/>
</svg>
